<?xml version="1.0" ?>
<!DOCTYPE svg  PUBLIC '-//W3C//DTD SVG 1.1//EN'  'http://www.w3.org/Graphics/SVG/1.1/DTD/svg11.dtd'>
<!-- Uploaded to: SVG Repo, www.svgrepo.com, Generator: SVG Repo Mixer Tools -->
<svg fill="#000000" width="800px" height="800px" viewBox="0 0 512 512" version="1.1" xml:space="preserve" xmlns="http://www.w3.org/2000/svg" xmlns:xlink="http://www.w3.org/1999/xlink">
<g id="_x31_64_x2C__information_x2C__content_x2C__development_x2C__website_x2C__web">
<g>
<path d="M449.925,81.67c-3.387-3.388-8.086-5.494-13.245-5.494H75.352    c-5.156,0-9.855,2.106-13.273,5.494c-3.39,3.418-5.527,8.118-5.527,13.276v260.183c0,5.158,2.137,9.857,5.527,13.245    c3.418,3.419,8.117,5.524,13.273,5.524H436.68c5.159,0,9.858-2.105,13.245-5.524c3.418-3.388,5.523-8.087,5.523-13.245V94.946    c0-5.067-2.042-9.706-5.31-13.093L449.925,81.67z M432.346,303.947V99.096H78.833v204.852H432.346z M439.824,95.343v212.358    c0,2.074-1.682,3.754-3.724,3.754H75.078c-2.074,0-3.751-1.68-3.751-3.754V95.343c0-2.075,1.677-3.754,3.751-3.754h361.022    C438.143,91.589,439.824,93.268,439.824,95.343z M299.37,381.406h-86.737l-17.337,65.862h121.408L299.37,381.406z     M190.446,454.776h-0.095h-54.109v10.347h239.551v-10.347H190.446z M318.813,115.547L318.813,115.547L318.813,115.547z     M318.996,115.547h0.091h0.333c23.504,0.183,44.743,9.766,60.156,25.18c2.871,2.838,5.492,5.889,7.936,9.125l0.063,0.061    l0.061,0.092l0.031,0.061l0,0c10.711,14.314,17.06,32.047,17.091,51.274l0.028,0.091v0.092v0.092l-0.028,0.092    c-0.031,23.684-9.644,45.107-25.148,60.613c-15.445,15.412-36.685,24.995-60.188,25.179h-0.424h-0.092h-0.092h-0.122H318.6h-0.429    c-23.472-0.184-44.743-9.767-60.156-25.179c-15.501-15.506-25.118-36.899-25.177-60.521v-0.092v-0.184v-0.183v-0.091    c0.06-23.654,9.676-45.018,25.177-60.521c15.413-15.414,36.685-24.997,60.156-25.18h0.337h0.092h0.213H318.996z M311.152,150.064    L311.152,150.064l-0.032,0.031h-0.031 M310.969,150.188h-0.031l-0.031,0.029l-0.365,0.337c-0.123,0.122-0.214,0.243-0.337,0.366    v0.03l-0.151,0.214l0,0l-0.091,0.152l0,0l-0.091,0.152h-0.031v0.062l0,0l-0.032,0.03l0,0l-0.032,0.031l-0.027,0.091l0,0v0.061l0,0    l-0.031,0.03l0,0l-0.032,0.031l0,0l-0.028,0.092l0,0v0.061l-0.031,0.031l0,0v0.061l-0.031,0.03v0.03l0,0l-0.028,0.061l0,0v0.063    l-0.031,0.03v0.03l0,0v0.061l0,0l-0.032,0.031l0,0v0.061v0.031l-0.031,0.061v0.061v0.031l-0.027,0.061v0.031l0,0v0.061v0.031    v0.061l-0.032,0.03v0.062v0.03v0.061v0.062v0.031v0.061v0.03v48.19v0.092v0.092v11.323v0.061l0,0v0.03v0.061l0,0v0.031v0.062l0,0    v0.03v0.03v0.03l0.032,0.031v0.03v0.03v0.03l0,0v0.03v0.031l0,0l0,0v0.031v0.029v0.031l0.027,0.03l0,0v0.091l0,0v0.031h0.031    v0.062l0,0v0.03l0,0v0.03l0.032,0.062l0,0v0.03v0.03v0.03l0.031,0.062l0.028,0.031v0.029v0.031l0,0v0.061l0.031,0.031l0.031,0.029    l0,0c0.184,0.549,0.488,1.008,0.885,1.404l0.031,0.03l0.028,0.03l0.032,0.031l0.031,0.031l0.027,0.029l0.032,0.031l0.06,0.03    l0.031,0.03l0.032,0.03l0.028,0.03l0.031,0.031h0.031l0.061,0.031l0.031,0.03l0.031,0.03l0.028,0.03l0,0l0.063,0.03l0,0    l0.027,0.031l0.031,0.03h0.063l0.028,0.03l0.031,0.03l0.031,0.03h0.061l0.031,0.031l0,0l0.028,0.029h0.063l0.031,0.031l0,0    l0.06,0.031h0.032l0,0l0.027,0.03l0.063,0.03l0,0l0,0h0.028l0,0l0.031,0.03h0.06l0.032,0.03h0.063l0.028,0.031h0.063l0.027,0.03    h0.063l0.028,0.03l0,0h0.063l0,0l0.031,0.03h0.061h0.031l0,0l0.06,0.03h0.032l0,0h0.059h0.032l0,0l0.06,0.031h0.031l0.092,0.031    h0.06h0.063h0.027l0,0h0.063h0.032h0.059h0.032l0.06,0.029h0.06h0.032h5.464h0.122h0.092h5.461h0.063h0.029l0.063-0.029h0.028    h0.063h0.059h0.032l0,0h0.06h0.031h0.061l0.094-0.031h0.061l0.031-0.031l0,0h0.06h0.031l0,0h0.06l0.031-0.03h0.061h0.031    l0.06-0.03l0,0h0.032l0,0l0.059-0.03l0,0h0.032l0.06-0.03h0.031l0.032-0.031h0.06l0.031-0.03h0.061l0,0l0.031-0.03l0,0h0.06l0,0    v-0.03h0.031l0,0l0.032-0.03l0,0h0.059l0,0l0.032-0.031l0,0l0.031-0.031h0.06l0.031-0.029l0,0l0.029-0.031h0.031h0.031l0,0    l0.028-0.03l0,0l0.031-0.03h0.032l0.031-0.03l0,0h0.027l0,0l0.032-0.03l0,0l0.06-0.031l0,0l0.031-0.03l0,0l0,0l0.032-0.03l0,0l0,0    l0.028-0.03l0,0l0.063-0.03l0,0l0.031-0.031l0,0h0.029l0,0l0.031-0.031l0,0l0.031-0.03l0,0l0.028-0.03h0.031l0.032-0.03l0,0    l0.027-0.03l0,0l0.031-0.031l0,0l0.032-0.029l0,0l0.028-0.031l0,0l0.031-0.031l0,0l0.031-0.03l0,0l0.031-0.03l0,0l0.029-0.03l0,0    l0.063-0.062l0.028-0.03l0,0l0.031-0.03l0,0l0,0l0.032-0.03l0,0l0.027-0.03l0,0l0.063-0.063l0,0l0.032-0.029l0,0v-0.031l0,0    l0.027-0.03l0.031-0.03v-0.031h0.032v-0.029h0.028v-0.031l0,0l0.031-0.03v-0.03l0.031-0.031l0,0v-0.029h0.028l0.031-0.063l0,0    l0.032-0.03v-0.03l0,0l0.027-0.03l0,0l0.096-0.183l0.027-0.031l0,0v-0.031l0,0l0.031-0.029l0,0v-0.031l0.032-0.03l0.028-0.091l0,0    v-0.031l0,0l0.031-0.031v-0.03v-0.03h0.031v-0.03l0,0v-0.03l0.028-0.031l0,0v-0.029v-0.031h0.032v-0.03v-0.03l0,0l0.031-0.031    v-0.061l0,0v-0.031h0.031v-0.03v-0.03l0,0v-0.03v-0.03l0.028-0.062l0,0v-0.061l0,0l0.031-0.122v-0.031l0,0l0.032-0.03l0,0v-0.062    v-0.029l0,0v-0.031v-0.031v-0.03l0,0v-0.03l0.027-0.122v-0.061l0,0v-0.03l0,0v-0.063v-0.029v-0.122v-59.697v-0.091v-0.031v-0.062    l0,0v-0.061l0,0v-0.03v-0.062l0,0v-0.03h-0.027v-0.061l0,0v-0.031l0,0v-0.061l0,0v-0.031l0,0v-0.061h-0.032v-0.031l0,0v-0.061l0,0    v-0.061l0,0l-0.031-0.031l0,0v-0.061l0,0v-0.031l0,0l-0.028-0.061l0,0v-0.03l0,0v-0.03h-0.031v-0.063l0,0v-0.061l0,0l-0.031-0.03    l0,0v-0.03h-0.032v-0.061l0,0v-0.031h-0.028v-0.061l0,0v-0.03h-0.031v-0.062l0,0l-0.031-0.031l0,0v-0.03l0,0l-0.028-0.061l0,0    v-0.03h-0.032v-0.061l0,0l-0.031-0.031l0,0v-0.03h-0.027v-0.062l0,0l-0.032-0.029l0,0l-0.032-0.031l0,0v-0.062l0,0l-0.031-0.03    l0,0l-0.027-0.03l0,0l-0.032-0.062l0,0l-0.031-0.031l0,0v-0.029h-0.028v-0.031l0,0l-0.031-0.061l0,0l-0.031-0.031l0,0    l-0.028-0.029l0,0l-0.032-0.031l0,0l-0.031-0.03l0,0l-0.027-0.062l0,0l-0.032-0.029l0,0v-0.031h-0.032v-0.031h-0.031v-0.03h-0.027    v-0.03h-0.032v-0.061l0,0l-0.031-0.031l0,0l-0.06-0.03l0,0l-0.031-0.03l0,0l-0.029-0.03l0,0l-0.031-0.03l0,0l-0.031-0.031l0,0    l-0.031-0.031l0,0l-0.028-0.029l0,0l-0.032-0.031l0,0l-0.031-0.03l0,0l-0.027-0.03l0,0l-0.032-0.03h-0.031l-0.028-0.03l0,0    l-0.031-0.031l0,0l-0.031-0.031l0,0l-0.029-0.029l0,0l-0.031-0.031l0,0l-0.063-0.029l0,0h-0.028l0,0l-0.032-0.031l0,0    l-0.031-0.031l0,0l-0.06-0.03l0,0l-0.032-0.03l0,0h-0.027l0,0l-0.031-0.03h-0.032l-0.031-0.03l0,0l-0.028-0.031l0,0l-0.031-0.029    h-0.031h-0.029l0,0l-0.031-0.031l-0.06-0.031h-0.031l0,0l-0.032-0.03l0,0l-0.059-0.03l0,0h-0.032l0,0l-0.031-0.03l0,0h-0.06l0,0    l-0.031-0.03l0,0l-0.061-0.031h-0.031l-0.06-0.03h-0.032l-0.031-0.03h-0.06l-0.032-0.03l0,0h-0.059l0,0h-0.032l0,0l-0.06-0.03    h-0.031l-0.061-0.031h-0.031h-0.06l0,0h-0.031l-0.06-0.031l0,0h-0.031h-0.061l-0.094-0.029h-0.061h-0.031h-0.06l0,0h-0.032    l-0.059-0.031h-0.063h-0.028h-0.063h-0.029h-0.063h-5.461h-0.092h-0.122h-5.464h-0.032h-0.06h-0.06h-0.032h-0.059l-0.032,0.031    h-0.063h-0.027h-0.063h-0.06h-0.031v0.029h-0.061h-0.031h-0.06l-0.032,0.031h-0.059h-0.032h-0.06v0.031h-0.031l0,0h-0.061l0,0    l-0.031,0.03h-0.063h-0.028l0,0l-0.063,0.03l0,0h-0.027l-0.063,0.03h-0.028l0,0l-0.063,0.03h-0.032l0,0l-0.091,0.062l0,0h-0.028    l0,0l-0.063,0.03l0,0h-0.027v0.03l-0.092,0.03h-0.031l0,0l-0.063,0.031l0,0l-0.028,0.031l0,0l-0.154,0.091l0,0 M259.358,350.795    c-0.856-0.824-2.046-1.373-3.358-1.373s-2.502,0.519-3.355,1.373c-0.856,0.885-1.376,2.075-1.376,3.357    c0,1.313,0.52,2.503,1.404,3.357c0.825,0.854,2.015,1.404,3.327,1.404c1.253,0,2.383-0.489,3.204-1.252l0.154-0.152    c0.853-0.854,1.403-2.045,1.403-3.357C260.762,352.87,260.211,351.68,259.358,350.795z M256,341.914    c3.39,0,6.439,1.373,8.637,3.602c2.229,2.197,3.604,5.279,3.604,8.637c0,3.389-1.376,6.471-3.573,8.667l-0.273,0.245    c-2.197,2.074-5.159,3.356-8.395,3.356c-3.355,0-6.44-1.403-8.637-3.602c-2.229-2.196-3.601-5.278-3.601-8.667    c0-3.357,1.373-6.41,3.573-8.637l0.151-0.123C249.683,343.257,252.705,341.914,256,341.914z M97.265,127.419    c-2.074,0-3.751-1.679-3.751-3.753c0-2.076,1.678-3.755,3.751-3.755h53.566c2.042,0,3.751,1.679,3.751,3.755    c0,2.074-1.709,3.753-3.751,3.753H97.265z M97.265,147.471c-2.074,0-3.751-1.679-3.751-3.754c0-2.076,1.678-3.754,3.751-3.754    h107.096c2.074,0,3.755,1.678,3.755,3.754c0,2.075-1.681,3.754-3.755,3.754H97.265z M97.265,167.523    c-2.074,0-3.751-1.68-3.751-3.755s1.678-3.755,3.751-3.755h107.096c2.074,0,3.755,1.68,3.755,3.755s-1.681,3.755-3.755,3.755    H97.265z M364.805,197.768h32.383c-0.734-15.26-5.798-29.36-14.01-41.141c-7.689,2.563-15.41,4.639-23.163,6.256    C362.822,173.443,364.5,185.285,364.805,197.768z M335.69,166.484v31.283h21.608c-0.306-12.055-1.955-23.408-4.672-33.449    C346.98,165.295,341.334,165.996,335.69,166.484z M357.877,155.711c6.777-1.404,13.582-3.205,20.418-5.371    c-1.28-1.465-2.625-2.93-3.996-4.303c-9.065-9.065-20.328-15.902-32.902-19.686c3.938,4.119,7.539,9.277,10.62,15.32    C354.213,145.914,356.168,150.645,357.877,155.711z M322.564,141.916h1.801h0.154l0.15,0.03h0.123h0.154h0.151h0.151l0.122,0.03    h0.155l0.15,0.031h0.123l0.154,0.031l0.15,0.029h0.123l0.15,0.031l0.123,0.03l0.154,0.03l0.12,0.031l0.154,0.029l0.122,0.031    l0.151,0.031l0.123,0.03l0.151,0.03l0.122,0.061l0.123,0.031l0.151,0.03l0.123,0.061l0.122,0.03l0.151,0.063l0.123,0.061    l0.122,0.03l0.123,0.061l0.151,0.062l0.123,0.03l0.122,0.061l0.123,0.062l0.119,0.062l0.123,0.061l0.122,0.062l0.123,0.061    l0.123,0.061l0.119,0.092l0.123,0.062l0.123,0.061l0.092,0.062l0.122,0.092l0.123,0.061l0.119,0.061l0.091,0.092l0.123,0.061    l0.123,0.093l0.092,0.091l0.123,0.062l0.122,0.091l0.091,0.092l0.123,0.062l0.092,0.091l0.091,0.093l0.123,0.091l0.091,0.092    l0.092,0.092l0.119,0.092l0.095,0.091l0.091,0.092l0.092,0.091l0.123,0.092l0.091,0.123l0.091,0.091l0.092,0.091l0.092,0.093    l0.059,0.122l0.092,0.092l0.092,0.092l0.094,0.121l0.092,0.092l0.092,0.122l0.059,0.122l0.092,0.092l0.092,0.122l0.063,0.091    l0.092,0.123l0.059,0.121l0.092,0.123l0.063,0.092l0.061,0.121l0.091,0.122l0.063,0.122l0.06,0.123l0.06,0.121l0.063,0.123    l0.06,0.121l0.06,0.123l0.063,0.121l0.06,0.122l0.063,0.123l0.059,0.122l0.061,0.121l0.063,0.123l0.031,0.152l0.061,0.122    l0.06,0.122l0.031,0.121l0.06,0.153l0.031,0.122l0.032,0.123l0.06,0.151l0.031,0.122l0.031,0.123l0.029,0.152l0.063,0.122    l0.028,0.152l0.031,0.122l0.032,0.152l0.027,0.122v0.153l0.031,0.121l0.032,0.153l0.032,0.152v0.122l0.027,0.152v0.152    l0.031,0.123v0.152v0.152l0.032,0.122v0.153v0.152v0.152l0,0v0.122v5.737c4.913-0.427,9.826-1.068,14.739-1.892    c-1.463-4.335-3.172-8.333-5.067-11.995c-6.103-11.902-14.098-19.867-22.798-21.639V141.916z M296.226,126.352    c-12.603,3.783-23.864,10.62-32.898,19.686c-1.407,1.373-2.716,2.807-4,4.303c6.808,2.137,13.645,3.906,20.418,5.311    c1.678-5.036,3.632-9.736,5.829-13.979C288.688,135.629,292.26,130.471,296.226,126.352z M301.904,158.946v-5.707v-0.122v-0.152    v-0.152l0,0l0.028-0.153v-0.122v-0.152l0.031-0.152l0,0v-0.123l0.031-0.152v-0.152l0.032-0.122l0,0v-0.152l0.027-0.153    l0.032-0.121l0,0l0.031-0.153l0.028-0.122l0.031-0.152l0.031-0.122l0.028-0.152l0.032-0.122l0.031-0.152l0.028-0.123l0.031-0.122    l0.063-0.151l0.027-0.123l0.063-0.122l0.028-0.153l0.063-0.121l0.027-0.122l0.063-0.122l0.06-0.152l0.031-0.123l0.06-0.121    l0.063-0.122l0.06-0.123l0.063-0.122l0.06-0.121l0.06-0.123l0.063-0.121l0,0l0.06-0.123l0,0l0.06-0.121l0.154-0.245l0.123-0.243    l0.091-0.092l0.032-0.062l0.027-0.062l0,0l0.032-0.061l0.06-0.061l0,0l0.031-0.061l0.032-0.063l0.091-0.091l0.06-0.122    l0.063-0.062l0.028-0.03l0,0l0.031-0.061l0.06-0.062l0.52-0.641l0.46-0.489l0.487-0.457l0.639-0.52l0.063-0.03l0.031-0.061l0,0    l0.06-0.03l0.06-0.031l0.123-0.091l0.092-0.062v-0.031l0.063-0.029l0.06-0.031l0,0l0.061-0.03l0.063-0.062l0.028-0.029    l0.063-0.031l0,0l0.06-0.03l0.063-0.03l0.242-0.153l0.245-0.122l0.091-0.092h0.032l0.119-0.061l0,0l0.091-0.061l0.154-0.062    l0.123-0.061l0.119-0.062l0.123-0.062l0.123-0.061l0.123-0.03l0.123-0.062l0.119-0.061l0.154-0.03l0.123-0.061l0.119-0.063    l0.123-0.03l0.154-0.061l0.123-0.03l0.119-0.031l0.154-0.061l0.123-0.03l0.15-0.03l0.123-0.031l0.15-0.031l0.123-0.029    l0.154-0.031l0.12-0.03l0.154-0.03l0,0l0.122-0.031h0.151l0.123-0.029h0.032l0.119-0.031h0.154l0.123-0.031h0.15l0,0l0.154-0.03    h0.119h0.154h0.151l0,0h0.154l0.123-0.03h0.151h1.831v-18.465c-8.729,1.771-16.694,9.736-22.829,21.639    c-1.86,3.662-3.569,7.66-5.036,11.965C292.077,157.878,296.991,158.52,301.904,158.946z M277.607,162.853    c-7.721-1.617-15.473-3.692-23.162-6.226c-8.208,11.75-13.308,25.881-14.01,41.141h32.382    C273.091,185.254,274.8,173.412,277.607,162.853z M301.904,197.768v-31.313c-5.647-0.487-11.294-1.22-16.94-2.196    c-2.717,10.07-4.362,21.424-4.64,33.51H301.904z M256.583,249.347l0.913,1.16c1.832,2.288,3.755,4.455,5.832,6.501    c9.034,9.063,20.296,15.9,32.898,19.686c-3.966-4.121-7.538-9.279-10.651-15.322c-2.744-5.31-5.096-11.322-7.051-17.854    C271.231,245.043,263.906,246.996,256.583,249.347z M272.817,205.275h-32.382c0.765,16.542,6.686,31.771,16.147,44.071    c7.324-2.351,14.649-4.304,21.941-5.829C275.169,232.134,273.123,219.102,272.817,205.275z M315.058,224.26h-1.831h-0.151h-0.123    h-0.154h-0.151h-0.154l-0.119-0.031h-0.154h-0.15l-0.123-0.031l-0.154-0.029h-0.151l-0.123-0.031l-0.151-0.03h-0.122l-0.154-0.03    l-0.151-0.031l-0.123-0.029l-0.15-0.031l-0.123-0.03l-0.123-0.03l-0.15-0.061l-0.123-0.031l-0.154-0.031l-0.119-0.03l-0.123-0.061    l-0.154-0.03l-0.123-0.063l-0.119-0.029l-0.154-0.062l-0.123-0.03l-0.119-0.061l-0.123-0.062l-0.123-0.061l-0.123-0.062    l-0.15-0.031l-0.123-0.061l-0.123-0.061l-0.123-0.061l-0.119-0.062l-0.123-0.091l-0.091-0.063l-0.122-0.061l-0.123-0.061    l-0.123-0.063l-0.119-0.09l-0.123-0.063l-0.092-0.091l-0.123-0.062l-0.122-0.092l-0.092-0.061l-0.123-0.092l-0.119-0.061    l-0.095-0.092l-0.119-0.092l-0.091-0.091l-0.123-0.093l-0.092-0.06l-0.091-0.093l-0.123-0.091l-0.091-0.091l-0.092-0.093    l-0.123-0.091l-0.091-0.092l-0.091-0.092c-1.039-1.038-1.864-2.289-2.443-3.662l0,0l-0.031-0.092l-0.028-0.061l0,0l-0.031-0.092    v-0.031l-0.063-0.061v-0.061l-0.027-0.031l-0.032-0.092l0,0l-0.031-0.092v-0.03l-0.028-0.061v-0.062l-0.031-0.03l-0.032-0.091l0,0    l-0.027-0.092v-0.031l-0.032-0.061l-0.031-0.061v-0.031l-0.031-0.091v-0.03v-0.063l-0.028-0.061v-0.03l-0.031-0.091l0,0    l-0.032-0.123l0,0l-0.028-0.122v-0.03l-0.031-0.123l0,0l-0.031-0.121v-0.031l-0.028-0.091v-0.03l-0.031-0.123v-0.03l-0.032-0.091    v-0.063v-0.061l-0.027-0.152v-0.061l-0.032-0.061V214.4v-0.091l-0.031-0.122v-0.092v-0.061v-0.062l-0.031-0.061v-0.092v-0.03    v-0.123v-0.029v-0.123l0,0l-0.028-0.122v-0.03v-0.122l0,0v-0.153l0,0v-0.151v-7.661h-21.58c0.306,13.43,2.292,25.973,5.587,36.838    c5.524-0.946,11.017-1.679,16.54-2.136c-5.523,0.457-11.016,1.189-16.54,2.136c1.769,5.799,3.875,11.109,6.317,15.84    c6.135,11.934,14.101,19.869,22.829,21.67V260.7h-0.063l-0.091-0.03l-0.119-0.031h-0.032l-0.154-0.029l-0.027-0.031l-0.123-0.031    h-0.06l-0.063-0.03l-0.15-0.03l0,0l-0.154-0.061h-0.028l-0.123-0.031l-0.123-0.061l-0.154-0.03l0,0l-0.151-0.062l-0.122-0.031    l-0.123-0.061h-0.028l-0.123-0.03l-0.059-0.03l-0.096-0.031l-0.091-0.029l-0.06-0.031l-0.123-0.062l-0.15-0.061h-0.063l-0.06-0.03    l-0.123-0.062h-0.031l-0.273-0.122l-0.061-0.031l-0.063-0.029l-0.119-0.062h-0.032l-0.123-0.062l-0.031-0.029l-0.091-0.031    l-0.274-0.152l0,0l-0.122-0.062l-0.061-0.03l-0.091-0.03l-0.091-0.062l-0.032-0.03l-0.123-0.061h-0.028l-0.094-0.062l-0.092-0.061    l-0.06-0.031l-0.123-0.061l-0.122-0.092h-0.029l-0.091-0.062l-0.091-0.061l-0.031-0.03l-0.123-0.061h-0.032l-0.091-0.092    l-0.06-0.031l-0.063-0.029l-0.119-0.093l0,0l-0.154-0.091l-0.092-0.092l-0.091-0.03l-0.032-0.03l-0.119-0.092l-0.123-0.092    l-0.031-0.03l-0.091-0.062l-0.091-0.062l-0.032-0.03l-0.091-0.092h-0.032l-0.091-0.091l-0.061-0.03l-0.059-0.061l-0.096-0.093    h-0.027l-0.092-0.091l-0.031-0.031l-0.092-0.061l-0.063-0.061l-0.06-0.031l-0.091-0.092l-0.032-0.03l-0.091-0.062l-0.032-0.061    l-0.06-0.061l-0.091-0.092h-0.032l-0.091-0.092l-0.028-0.03l-0.095-0.093l-0.06-0.061l-0.031-0.03l-0.12-0.091l-0.214-0.245    c-2.931-3.052-4.73-7.171-4.73-11.72v-0.061v-0.031v-0.061v-0.061l0,0v-0.061v-0.063v-0.061v-0.03v-0.03l0.028-0.062v-0.061    v-0.062l0,0v-0.061v-0.031v-0.061v-0.061l0,0v-0.062v-0.061v-0.062v-0.031v-0.03l0.031-0.061v-0.062v-0.029v-0.031v-0.031v-0.061    v-0.061v-0.062l0,0l0.031-0.061v-0.062v-0.031v-0.061l0,0v-0.061v-0.061l0.032-0.062v-0.03v-0.031v-0.061v-0.062l0.027-0.03v-0.03    v-0.093v-0.061v-0.061h0.032v-0.061v-0.031v-0.061l0.031-0.061l0,0v-0.063v-0.061v-0.061l0.028-0.031v-0.03v-0.03v-0.061    l0.031-0.123v-0.061l0.031-0.061v-0.031l0,0v-0.061l0.028-0.061v-0.063v-0.029v-0.031l0.032-0.03v-0.062l0.031-0.061v-0.031v-0.03    l0.028-0.183l0.063-0.184l0.06-0.213v-0.03l0.032-0.153l0,0l0.031-0.123l0.028-0.09l0.031-0.061l0.032-0.123v-0.03l0.027-0.123    l0.032-0.061l0.031-0.062l0.031-0.121V239l0.06-0.122v-0.061l0.032-0.062l0.06-0.152l0,0l0.031-0.122l0.028-0.062l0.031-0.061    l0.032-0.122v-0.03l0.06-0.122l0.031-0.062l0.031-0.061l0.028-0.122v-0.03l0.063-0.122l0.028-0.03l0.031-0.093l0.031-0.091    l0.028-0.031l0.063-0.152l0,0l0.06-0.122l0.031-0.061l0.031-0.062l0.061-0.122v-0.03l0.06-0.092l0.031-0.092l0.031-0.029    l0.06-0.153l0.063-0.122l0.028-0.061l0.031-0.063l0.06-0.091v-0.03l0.063-0.123l0.028-0.03l0.063-0.091l0.061-0.092v-0.03    l0.063-0.122l0.028-0.031l0.031-0.091l0.06-0.092h0.032l0.063-0.122l0.028-0.031l0.063-0.091l0.028-0.091l0.031-0.031l0.091-0.121    v-0.031l0.063-0.092l0.06-0.061l0.032-0.031l0.06-0.122l0.031-0.03l0.06-0.092l0.031-0.061l0.06-0.061l0.063-0.093l0.092-0.122    l0.027-0.061l0.063-0.061l0.06-0.092l0,0l0.092-0.122l0.031-0.03l0.06-0.093l0.063-0.091h0.027l0.092-0.122l0.031-0.03    l0.063-0.061l0.06-0.093l0.031-0.03l0.092-0.092v-0.03l0.091-0.091l0.06-0.063l0.032-0.029l0.091-0.092v-0.031l0.092-0.092    l0.063-0.061l0.028-0.03l0.091-0.092v-0.03l0.092-0.092l0.063-0.031l0.027-0.061l0.095-0.091l0.274-0.214l0.092-0.122l0.031-0.03    l0.06-0.061l0.091-0.063l0.031-0.029l0.092-0.092l0.031-0.031l0.061-0.061l0.091-0.061l0.031-0.031l0.091-0.092h0.032l0.091-0.092    l0.028-0.029l0.091-0.062l0.063-0.091h0.032l0.119-0.093v-0.03l0.091-0.061l0.091-0.062l0.032-0.03l0.123-0.092l0,0l0.091-0.061    l0.061-0.031l0.063-0.061l0.092-0.061l0.031-0.031l0.119-0.092l0,0l0.123-0.061l0.063-0.062l0.028-0.03l0.123-0.061v-0.031    l0.123-0.061l0.031-0.031l0.091-0.061l0.092-0.061h0.027l0.123-0.092h0.032l0.091-0.061l0.061-0.031l0.063-0.031l0.123-0.091l0,0    l0.119-0.062l0.031-0.029l0.092-0.031l0.091-0.061l0.032-0.031l0.123-0.061h0.027l0.092-0.062l0.063-0.03l0.061-0.03l0.122-0.093    l0,0l0.154-0.061h0.028l0.092-0.061l0.091-0.031l0.031-0.029l0.123-0.062h0.032l0.091-0.061l0.091-0.03l0.061-0.031l0.122-0.062    l0,0l0.123-0.061h0.06l0.092-0.03l0.091-0.061h0.031l0.123-0.062h0.028l0.123-0.062l0.063-0.029h0.06l0.123-0.063h0.032    l0.119-0.061h0.031l0.092-0.03l0.122-0.03l0.032-0.031l0.119-0.031h0.031l0.123-0.061h0.06l0.063-0.03l0.119-0.062h0.031    l0.123-0.029h0.06l0.091-0.031l0.092-0.03l0.063-0.03l0.123-0.031h0.028l0.123-0.029l0.063-0.031h0.059l0.151-0.031l0,0    l0.154-0.03V224.26z M359.099,243.456c7.293,1.526,14.617,3.479,21.941,5.86l-0.274,0.365c-2.014,2.564-4.18,5.006-6.467,7.326    c-9.065,9.063-20.328,15.9-32.902,19.686c3.938-4.121,7.539-9.279,10.62-15.322C354.765,256.062,357.144,250.018,359.099,243.456z     M359.099,243.456c7.293,1.526,14.617,3.479,21.941,5.86c9.462-12.301,15.354-27.499,16.147-44.041h-32.383    C364.469,219.102,362.453,232.104,359.099,243.456 M335.139,239.947c5.524,0.457,11.049,1.159,16.545,2.105    c-1.741,5.829-3.879,11.17-6.321,15.9c-6.103,11.934-14.098,19.869-22.798,21.67V260.7h0.063l0.06-0.03l0.123-0.031h0.027    l0.154-0.029l0.032-0.031l0.119-0.031h0.063l0.092-0.03l0.122-0.03l0,0l0.151-0.061h0.063l0.092-0.031l0.091-0.03l0.06-0.03    l0.123-0.03h0.031l0.119-0.062h0.064l0.091-0.031l0.122-0.061l0,0l0.151-0.03l0.032-0.03l0.091-0.031l0.091-0.029l0.061-0.031    l0.154-0.062l0.122-0.03l0.06-0.03l0.092-0.03l0.091-0.062h0.032l0.15-0.061l0,0l0.123-0.062l0.063-0.031l0.061-0.029l0.123-0.062    h0.031l0.119-0.062l0.063-0.029l0.092-0.031l0.092-0.061h0.031l0.119-0.092h0.031l0.123-0.062l0.061-0.03l0.063-0.03l0.092-0.062    h0.027l0.123-0.091h0.031l0.123-0.062l0.06-0.061l0.06-0.031l0.123-0.061l0.123-0.092h0.06l0.063-0.062l0.091-0.061l0.032-0.03    l0.119-0.061l0.031-0.031l0.092-0.061l0.063-0.031l0.06-0.061l0.123-0.062h0.028l0.094-0.091l0.029-0.031l0.091-0.061l0.091-0.061    h0.031l0.123-0.092l0,0l0.123-0.092l0.061-0.03l0.059-0.062l0.096-0.062l0.027-0.03l0.123-0.092v-0.03l0.092-0.061l0.059-0.062    l0.063-0.029l0.123-0.093l0,0l0.119-0.091l0.032-0.031l0.063-0.061l0.092-0.061l0.027-0.031l0.092-0.122h0.031l0.092-0.091    l0.063-0.031l0.061-0.061l0.091-0.092l0,0l0.091-0.092l0.031-0.03l0.092-0.093l0.06-0.061l0.032-0.03l0.122-0.122    c3.05-3.053,4.945-7.264,4.945-11.934v-0.061v-0.061v-0.062v-0.03v-0.061v-0.063v-0.061v-0.03v-0.03v-0.092v-0.061v-0.031v-0.031    v-0.061v-0.091l-0.032-0.03v-0.031v-0.061v-0.061v-0.063v-0.03v-0.061v-0.062v-0.061l0,0l-0.031-0.062v-0.091v-0.062l0,0v-0.061    v-0.062l-0.027-0.092l0,0v-0.061v-0.061v-0.062v-0.03l-0.032-0.031v-0.092v-0.061v-0.03v-0.03l-0.032-0.063v-0.061v-0.061v-0.031    l-0.031-0.061v-0.061v-0.061l0,0l-0.027-0.063v-0.061v-0.092l0,0l-0.032-0.061v-0.061v-0.061l-0.031-0.031v-0.031v-0.091    l-0.028-0.062l0,0v-0.061v-0.061l-0.031-0.063v-0.029v-0.031l-0.031-0.061v-0.061v-0.063l-0.029-0.03v-0.061l-0.031-0.062v-0.061    l0,0l-0.059-0.244l-0.032-0.092v-0.061l0,0L335.139,239.947z M97.265,244.158c-2.074,0-3.751-1.679-3.751-3.754    c0-2.076,1.678-3.754,3.751-3.754h72.426c2.074,0,3.755,1.678,3.755,3.754c0,2.075-1.681,3.754-3.755,3.754H97.265z     M97.265,264.209c-2.074,0-3.751-1.709-3.751-3.753c0-2.075,1.678-3.754,3.751-3.754h144.879c2.046,0,3.755,1.679,3.755,3.754    c0,2.044-1.709,3.753-3.755,3.753H97.265z M97.265,284.262c-2.074,0-3.751-1.68-3.751-3.754c0-2.076,1.678-3.754,3.751-3.754    h144.879c2.046,0,3.755,1.678,3.755,3.754c0,2.074-1.709,3.754-3.755,3.754H97.265z M33.512,187.207    c0,2.076-1.681,3.755-3.755,3.755c-2.074,0-3.755-1.679-3.755-3.755V75.688c0-7.904,3.267-15.107,8.486-20.326    c5.25-5.249,12.452-8.484,20.355-8.484h64.094c2.046,0,3.755,1.678,3.755,3.723c0,2.076-1.709,3.755-3.755,3.755H54.842    c-5.857,0-11.199,2.411-15.045,6.257c-3.875,3.876-6.286,9.217-6.286,15.076V187.207z M457.157,54.354    c-2.074,0-3.751-1.679-3.751-3.755c0-2.045,1.677-3.723,3.751-3.723c7.936,0,15.168,3.235,20.387,8.454    c5.223,5.219,8.455,12.422,8.455,20.356v47.154c0,2.044-1.678,3.723-3.752,3.723c-2.078,0-3.755-1.679-3.755-3.723V75.688    c0-5.859-2.411-11.2-6.258-15.045C468.359,56.766,463.019,54.354,457.157,54.354z M318.781,235.186    c5.159,0,9.339,4.182,9.339,9.369c0,5.158-4.18,9.34-9.339,9.34c-5.158,0-9.338-4.182-9.338-9.34    C309.443,239.367,313.623,235.186,318.781,235.186z M333.98,218.918l-0.063,0.092l-0.028,0.031v0.029l-0.063,0.092l-0.031,0.031    l-0.091,0.152l-0.028,0.029l-0.063,0.093l-0.029,0.03v0.03l-0.063,0.062l0,0l-0.06,0.061l-0.032,0.062v0.03l-0.059,0.061    c-0.307,0.396-0.643,0.764-1.008,1.16l-0.092,0.062l-0.091,0.091l-0.122,0.122l-0.092,0.093l-0.092,0.091l-0.091,0.091l0,0    l-0.123,0.063v0.03l-0.091,0.06l-0.123,0.093l0,0l-0.092,0.091l0,0l-0.122,0.092l-0.091,0.062v0.03l-0.123,0.061l0,0l-0.092,0.092    l0,0l-0.123,0.061l0,0l-0.123,0.092l0,0l-0.091,0.062l0,0l-0.119,0.091l0,0l-0.123,0.063l-0.122,0.061v0.029l-0.123,0.063l0,0    l-0.092,0.061l-0.123,0.061l-0.119,0.063l-0.123,0.091l-0.123,0.062l-0.122,0.061l-0.123,0.061l-0.119,0.061l-0.123,0.031    l-0.122,0.062l-0.151,0.061l-0.123,0.062l-0.123,0.061l-0.122,0.03l-0.123,0.062l-0.151,0.029l-0.122,0.063l-0.123,0.03    l-0.151,0.061l0,0l-0.123,0.03l-0.122,0.031l0,0l-0.151,0.031l-0.123,0.061l-0.151,0.03l-0.122,0.03l-0.154,0.031l-0.12,0.029    l-0.154,0.031l-0.123,0.03h-0.15l-0.123,0.03l-0.15,0.031h-0.154l-0.123,0.029l-0.15,0.031h-0.155h-0.122l0,0l-0.151,0.031h-0.151    h-0.154h-0.123h-0.15h-0.154h-1.801v3.479l0.063,0.03l0.06,0.03l0.123,0.031h0.027l0.154,0.031h0.032l0.119,0.029l0.095,0.031    l0.061,0.03l0.122,0.03l0,0l0.151,0.031l0.063,0.029l0.092,0.031l0.091,0.03h0.06l0.123,0.062h0.031l0.119,0.029l0.064,0.031    l0.091,0.031l0.122,0.03l0,0l0.151,0.061h0.032l0.091,0.062l0.091,0.031h0.061l0.154,0.061l0,0l0.122,0.061l0.06,0.031    l0.092,0.029l0.091,0.031l0.032,0.03l0.15,0.061l0,0l0.123,0.062l0.092,0.031l0.063,0.03l0.123,0.03v0.03l0.119,0.062h0.063    l0.092,0.061l0.092,0.03l0.031,0.03l0.119,0.061h0.031l0.123,0.093l0.061,0.03l0.063,0.03l0.092,0.062h0.027l0.123,0.061    l0.031,0.031l0.123,0.061l0.06,0.031l0.06,0.029l0.123,0.092l0.123,0.061l0.06,0.031l0.063,0.062l0.091,0.03l0.032,0.03    l0.119,0.092h0.031l0.123,0.061l0.06,0.062l0.063,0.031l0.091,0.061l0.028,0.03l0.123,0.061l0.031,0.03l0.06,0.062l0.091,0.061    l0.063,0.03l0.091,0.093l0,0l0.123,0.091l0.061,0.031l0.059,0.029l0.096,0.093l0.027,0.03l0.123,0.061v0.031l0.092,0.061    l0.091,0.061l0.031,0.031l0.123,0.092l0,0l0.119,0.092l0.032,0.029l0.063,0.092l0.092,0.061l0.027,0.031l0.123,0.092l0,0    l0.092,0.092l0.063,0.061l0.061,0.031l0.091,0.092v0.029l0.122,0.092l0.032,0.03l0.06,0.062l0.06,0.062l0.063,0.061l0.091,0.092    l0.091,0.091l0.061,0.061l0.031,0.031l0.092,0.092l0,0l0.091,0.122l0.063,0.03l0.027,0.061l0.092,0.092l0,0l0.092,0.092    l0.063,0.061l0.031,0.063l0.092,0.091l0,0l0.091,0.092l0.06,0.061l0.031,0.03l0.061,0.123h0.031l0.06,0.092l0.063,0.061    l0.027,0.061l0.092,0.092v0.031l0.063,0.061l0.06,0.092l0.031,0.031l0.092,0.091v0.03l0.059,0.092l0.064,0.091l0.031,0.03    l0.06,0.093l0.031,0.03l0.06,0.092l0.061,0.061l0.031,0.03l0.06,0.122l0.031,0.031l0.032,0.091l0.059,0.062l0.032,0.031    l0.06,0.121l0.031,0.031l0.061,0.091l0.063,0.091l0.06,0.123l0.032,0.03l0.059,0.092l0.032,0.091l0.032,0.031l0.059,0.122    l0.032,0.03l0.031,0.061l0.06,0.122l0,0l0.092,0.123v0.061l0.06,0.062l0.031,0.092l0.032,0.03l0.059,0.122l0.032,0.03l0.091,0.183    v0.031l0.092,0.152l0.031,0.092l0.06,0.122l0,0l0.032,0.122l0.031,0.061l0.027,0.061l0.064,0.123l0,0l0.059,0.121l0.032,0.063    l0.028,0.061l0.031,0.122l0,0l0.06,0.122l0.032,0.061v0.092l0.063,0.122l0,0l0.06,0.122l0.032,0.061v0.062l0.059,0.122l0,0    l0.032,0.122l0.06,0.152l0.031,0.122l0,0l0.031,0.123l0.029,0.091l0.031,0.061l0.031,0.123l0,0l0.028,0.122l0.031,0.092    l0.032,0.029l0.027,0.184l0.031,0.123c5.524,0.457,11.049,1.159,16.545,2.105c3.295-10.835,5.277-23.348,5.615-36.777H335.69    v7.661v0.151l0,0v0.153v0.152v0.122l-0.032,0.152v0.153l0,0v0.122l-0.031,0.152v0.152l-0.027,0.122v0.153l-0.032,0.152    l-0.032,0.121l-0.031,0.153v0.122l-0.027,0.152l-0.032,0.123l-0.031,0.152l-0.028,0.122l-0.063,0.153l-0.029,0.121l-0.031,0.123    v0.03l-0.031,0.122l0,0l-0.06,0.121v0.031l-0.032,0.092v0.03l-0.031,0.122h-0.027l-0.032,0.121l-0.031,0.123l-0.028,0.03    l-0.031,0.122l0,0l-0.061,0.121l0,0l-0.031,0.123h-0.031l-0.031,0.123v0.029l-0.061,0.092v0.031l-0.059,0.121l0,0l-0.063,0.123    l0,0l-0.06,0.121l0,0l-0.063,0.122l0,0l-0.06,0.122l0,0l-0.06,0.122l0,0l-0.063,0.123l0,0l-0.06,0.122l0,0l-0.06,0.091v0.03    l-0.063,0.092l-0.091,0.122L333.98,218.918z" style="fill-rule:evenodd;clip-rule:evenodd;"/>
</g>
</g>
<g id="Layer_1"/>
</svg>