<?xml version="1.0" ?>
<!-- Uploaded to: SVG Repo, www.svgrepo.com, Generator: SVG Repo Mixer Tools -->
<svg fill="#000000" width="800px" height="800px" viewBox="0 0 32 32" xmlns="http://www.w3.org/2000/svg">
<title/>
<g data-name="Layer 2" id="Layer_2">
<path d="M30,18V4a1,1,0,0,0-1-1H21a1,1,0,0,0-1,1V18H11.5V16H18a1,1,0,0,0,1-1V6a1,1,0,0,0-1-1H3A1,1,0,0,0,2,6v9a1,1,0,0,0,1,1H9.5v2H2a1,1,0,0,0-1,1v3a1,1,0,0,0,1,1v7a1,1,0,0,0,2,0V28H28v2a1,1,0,0,0,2,0V23a1,1,0,0,0,1-1V19A1,1,0,0,0,30,18ZM4,7H17v7H4ZM22,5h6V18H22ZM3,20H29v1H3Zm25,6H4V23H28Z"/>
<path d="M25.71,15.29a1,1,0,0,0-1.09-.21.93.93,0,0,0-.33.21,1,1,0,0,0-.21.33.94.94,0,0,0,0,.76.9.9,0,0,0,.54.54.94.94,0,0,0,.76,0,.9.9,0,0,0,.54-.54A.84.84,0,0,0,26,16a1,1,0,0,0-.08-.38A1,1,0,0,0,25.71,15.29Z"/>
<rect height="2" width="4" x="23" y="10"/>
<rect height="2" width="4" x="23" y="7"/>
</g>
</svg>