<?xml version="1.0" encoding="iso-8859-1"?>
<!-- Uploaded to: SVG Repo, www.svgrepo.com, Generator: SVG Repo Mixer Tools -->
<svg fill="#000000" height="800px" width="800px" version="1.1" id="Layer_1" xmlns="http://www.w3.org/2000/svg" xmlns:xlink="http://www.w3.org/1999/xlink" 
	 viewBox="0 0 491.52 491.52" xml:space="preserve">
<g>
	<g>
		<path d="M491.52,450.56V327.68H327.68v51.2h-40.96v-87.71h68.01c55.53,0,95.83-36.32,95.83-86.37c0-36.38-23.23-68.81-56.66-81.11
			c3.05-10.11,4.14-20.6,3.41-32.27C394.24,41.41,349.72,0.4,298.07,0c-41.06-0.04-78.09,24.21-93.45,60.2
			c-15.1-11.2-34.18-16.6-53.59-14.79c-27.94,2.62-52.38,21.23-63.77,48.56c-5.42,12.99-4.7,27.42-3.46,36.22
			c-26.26,15.37-42.84,43.84-42.84,74.61c0,49.24,41.2,86.37,95.83,86.37h68.01v87.71h-40.96v-51.2H0v122.88h71.68v20.48H30.72
			v20.48h102.4v-20.48H92.16v-20.48h71.68v-51.2h61.44V291.17h40.96v108.19h61.44v51.2h71.68v20.48H358.4v20.48h102.4v-20.48h-40.96
			v-20.48H491.52z M143.36,430.08H20.48v-81.92h122.88V430.08z M136.79,270.69c-43.66,0-75.35-27.71-75.35-65.89
			c0-25.55,14.97-49.01,38.15-59.78l7.77-3.65l-2.2-8.3c-0.05-0.17-4.61-17.76,1-31.22c8.47-20.32,26.4-34.13,46.79-36.04
			c1.84-0.18,3.67-0.26,5.49-0.26c16.69,0,32.51,7.13,43.12,19.67l13.27,15.69l4.54-20.04c7.94-35.08,40.65-60.39,77.92-60.39
			c0.2,0,0.41,0,0.62,0c41.11,0.32,76.53,32.71,78.96,72.21c0.79,12.63-0.99,22.97-5.74,33.51l-5.21,11.53l12.36,2.69
			c30.02,6.53,51.8,33.61,51.8,64.38c0,38.8-30.99,65.89-75.35,65.89H136.79z M348.16,430.08v-81.92h122.88v81.92H348.16z"/>
	</g>
</g>
</svg>