<?xml version="1.0" encoding="iso-8859-1"?>
<!-- Uploaded to: SVG Repo, www.svgrepo.com, Generator: SVG Repo Mixer Tools -->
<svg height="800px" width="800px" version="1.1" id="Layer_1" xmlns="http://www.w3.org/2000/svg" xmlns:xlink="http://www.w3.org/1999/xlink" 
	 viewBox="0 0 512 512" xml:space="preserve">
<circle style="fill:#83CF8F;" cx="256" cy="256" r="256"/>
<path style="fill:#6C7678;" d="M162.12,65.348h187.628c6.18,0,11.176,4.996,11.176,11.176v115.575h-209.98V76.524
	C150.944,70.344,155.94,65.348,162.12,65.348z"/>
<path style="fill:#FEFEFE;" d="M158.57,184.473h194.728V76.524c0-1.972-1.578-3.55-3.55-3.55H162.12c-1.972,0-3.55,1.578-3.55,3.55
	V184.473z"/>
<path style="fill:#E4E7ED;" d="M135.297,192.099h241.274v6.443c0,3.55-2.893,6.443-6.443,6.443H141.74
	c-3.55,0-6.443-2.893-6.443-6.443V192.099z"/>
<polygon style="fill:#C6CBD6;" points="232.99,193.939 279.01,193.939 274.013,197.227 237.855,197.227 "/>
<path style="fill:#6C7678;" d="M30.241,306.884H217.87c6.18,0,11.176,4.996,11.176,11.176v115.575H19.065V318.061
	C19.065,311.881,24.062,306.884,30.241,306.884z"/>
<path style="fill:#FEFEFE;" d="M26.691,426.009H221.42V318.061c0-1.972-1.578-3.55-3.55-3.55H30.241c-1.972,0-3.55,1.578-3.55,3.55
	V426.009z"/>
<path style="fill:#E4E7ED;" d="M3.419,433.635h241.274v6.443c0,3.55-2.893,6.443-6.443,6.443H9.861c-3.55,0-6.443-2.893-6.443-6.443
	V433.635z"/>
<polygon style="fill:#C6CBD6;" points="101.111,435.608 146.999,435.608 142.135,438.763 105.976,438.763 "/>
<path style="fill:#6C7678;" d="M294.13,306.884h187.628c6.18,0,11.176,4.996,11.176,11.176v115.575h-209.98V318.061
	C282.954,311.881,287.951,306.884,294.13,306.884z"/>
<path style="fill:#FEFEFE;" d="M290.449,426.009h194.728V318.061c0-1.972-1.578-3.55-3.55-3.55H293.999
	c-1.972,0-3.55,1.578-3.55,3.55V426.009z"/>
<path style="fill:#E4E7ED;" d="M267.176,433.635H508.45v6.443c0,3.55-2.893,6.443-6.443,6.443H273.619
	c-3.55,0-6.443-2.893-6.443-6.443V433.635z"/>
<polygon style="fill:#C6CBD6;" points="364.869,435.608 410.889,435.608 405.892,438.763 369.865,438.763 "/>
<path style="fill:#FEFEFE;" d="M243.64,288.214c-0.789,1.183-2.367,1.446-3.55,0.657c-1.183-0.789-1.446-2.367-0.657-3.55
	c1.841-2.63,4.339-4.865,7.232-6.443c2.761-1.446,5.917-2.367,9.335-2.367s6.574,0.789,9.335,2.367
	c2.893,1.578,5.391,3.813,7.232,6.443c0.789,1.183,0.526,2.761-0.657,3.55c-1.183,0.789-2.761,0.526-3.55-0.657
	c-1.315-1.972-3.287-3.682-5.391-4.865c-2.104-1.052-4.47-1.709-6.969-1.709c-2.498,0-4.865,0.657-6.969,1.709
	C246.928,284.532,244.955,286.11,243.64,288.214z M256,295.314c4.996,0,8.941,4.076,8.941,8.941c0,4.996-4.076,8.941-8.941,8.941
	c-4.996,0-8.941-4.076-8.941-8.941C247.059,299.258,251.135,295.314,256,295.314z M196.964,256.526
	c-0.789,1.183-2.367,1.446-3.55,0.657c-1.183-0.789-1.446-2.367-0.657-3.55c6.969-10.256,16.436-18.671,27.48-24.588
	c10.65-5.654,22.747-8.809,35.632-8.809c12.885,0,24.982,3.156,35.632,8.809c11.045,5.785,20.512,14.332,27.48,24.588
	c0.789,1.183,0.526,2.761-0.657,3.55c-1.183,0.789-2.761,0.526-3.55-0.657c-6.574-9.598-15.384-17.487-25.639-23.01
	c-9.993-5.259-21.3-8.284-33.266-8.284c-12.097,0-23.404,3.024-33.266,8.284C212.347,238.907,203.406,246.928,196.964,256.526z
	 M212.479,267.045c-0.789,1.183-2.367,1.446-3.55,0.657c-1.183-0.789-1.446-2.367-0.657-3.55
	c5.259-7.758,12.36-14.069,20.775-18.539c8.021-4.208,17.224-6.706,26.954-6.706c9.73,0,18.934,2.367,26.954,6.706
	c8.284,4.47,15.515,10.782,20.775,18.539c0.789,1.183,0.526,2.761-0.657,3.55s-2.761,0.526-3.55-0.657
	c-4.865-7.1-11.308-12.885-18.934-16.961c-7.363-3.813-15.647-6.048-24.588-6.048s-17.224,2.235-24.588,6.048
	C223.786,254.159,217.344,259.945,212.479,267.045z M225.89,276.249c-0.789,1.183-2.367,1.446-3.55,0.657
	c-1.183-0.789-1.446-2.367-0.657-3.55c3.813-5.522,8.941-10.124,14.858-13.28c5.785-3.024,12.36-4.733,19.328-4.733
	c6.969,0,13.543,1.709,19.328,4.733c6.048,3.156,11.045,7.758,14.858,13.28c0.789,1.183,0.526,2.761-0.657,3.55
	c-1.183,0.789-2.761,0.526-3.55-0.657c-3.287-4.865-7.889-8.941-13.017-11.702c-4.996-2.63-10.782-4.208-16.961-4.208
	c-6.18,0-11.965,1.578-16.961,4.208C233.648,267.308,229.177,271.384,225.89,276.249z"/>
</svg>