<?xml version="1.0" encoding="iso-8859-1"?>
<!-- Uploaded to: SVG Repo, www.svgrepo.com, Generator: SVG Repo Mixer Tools -->
<svg version="1.1" id="Layer_1" xmlns="http://www.w3.org/2000/svg" xmlns:xlink="http://www.w3.org/1999/xlink" 
	 viewBox="0 0 512 512" xml:space="preserve">
<path style="fill:#2D2D2D;" d="M0,355.272V31.352c0-5.744,4.704-10.448,10.448-10.448h491.104c5.744,0,10.448,4.704,10.448,10.448
	v323.92"/>
<g>
	<path style="fill:#E0E0E0;" d="M0,355.272v41.8c0,5.744,4.704,10.448,10.448,10.448h491.104c5.744,0,10.448-4.704,10.448-10.448
		v-41.8H0z"/>
	<rect x="146.28" y="480.648" style="fill:#E0E0E0;" width="219.432" height="10.448"/>
</g>
<polygon style="fill:#999999;" points="329.144,480.664 182.856,480.664 193.304,407.52 318.696,407.52 "/>
<rect x="20.896" y="41.8" style="fill:#8AD5DD;" width="470.2" height="292.576"/>
<path style="fill:#FFFFFF;" d="M349.68,171.936h-4.4c-4.384-18.512-20.976-32.304-40.824-32.304c-4.824,0-9.44,0.856-13.752,2.352
	c-9.712-27.688-36.008-47.576-67.008-47.576c-39.248,0-71.072,31.816-71.072,71.072c0,2.472,0.128,4.912,0.376,7.32
	c-25.8,4.464-45.6,27.032-45.6,54.056c0,30.208,24.712,54.92,54.92,54.92h187.36c30.208,0,54.92-24.712,54.92-54.92
	C404.6,196.648,379.888,171.936,349.68,171.936z"/>
</svg>